<svg width="3000" height="3000" viewBox="0 0 3000 3000" fill="none" xmlns="http://www.w3.org/2000/svg">
<path d="M1750.55 1904.83L1665.65 1878.48L1750.05 1852.28C1776.04 1843.81 1790.25 1815.87 1781.78 1789.88C1773.31 1763.89 1745.37 1749.68 1719.38 1758.15L1498.7 1826.65L1278.03 1758.15C1252.04 1749.68 1224.1 1763.89 1215.62 1789.88C1207.16 1815.87 1221.37 1843.81 1247.36 1852.28L1331.75 1878.48L1246.86 1904.83C1220.87 1913.29 1206.66 1941.24 1215.13 1967.23C1223.6 1993.22 1251.54 2007.43 1277.53 1998.96L1498.7 1930.3L1719.88 1998.96C1745.87 2007.43 1773.81 1993.22 1782.28 1967.23C1790.75 1941.24 1776.54 1913.3 1750.55 1904.83Z" fill="#F85E00"/>
<path d="M1417.94 1737.71C1417.94 1616.15 1498.98 1498.37 1498.98 1498.37C1498.98 1498.37 1580.03 1616.15 1580.03 1737.71C1818.84 1737.71 1806.2 1498.77 1748.68 1376.8C1736.58 1351.14 1701.92 1346.62 1683.69 1368.35C1636.96 1424.07 1581.68 1455.55 1581.68 1455.55C1581.68 1455.55 1625.47 1326.93 1538.54 1195.21C1513.22 1156.84 1474.72 1130.84 1441.7 1114.21C1415.62 1101.08 1384.73 1120.27 1385.27 1149.48C1387.53 1274.04 1297.42 1348.06 1253.75 1413.55C1172.71 1535.11 1213.22 1737.71 1417.94 1737.71Z" fill="#F85E00"/>
<g clip-path="url(#clip0_3_2)">
<path d="M1028.14 1450.24C1027.42 1452.62 1026.21 1456.71 1025.42 1459.33C1024.64 1461.95 1022.63 1468.71 1020.95 1474.34C1019.26 1479.98 1016.55 1489.08 1014.92 1494.54L1011.95 1504.51L983.214 1504.65C967.407 1504.73 954.477 1504.84 954.477 1504.89C954.477 1504.95 956.557 1506.6 959.102 1508.55C961.635 1510.51 972.035 1518.5 982.19 1526.31C992.357 1534.13 1000.76 1540.62 1000.89 1540.74C1001.13 1540.99 1001.55 1539.5 995.857 1558.55C993.615 1566.09 991.734 1572.4 988.33 1583.82C986.64 1589.49 984.902 1595.31 984.471 1596.75C984.039 1598.2 983.717 1599.41 983.753 1599.45C983.839 1599.53 980.889 1601.84 1006.96 1581.34C1019.25 1571.69 1029.48 1563.65 1029.69 1563.49L1030.09 1563.18L1039.41 1570.37C1069.35 1593.45 1076.77 1599.13 1076.8 1599.09C1076.83 1599.06 1076.23 1597.07 1075.49 1594.64C1074.73 1592.23 1072.81 1586 1071.2 1580.82C1064.87 1560.3 1062.38 1552.23 1061.15 1548.25C1059.36 1542.44 1058.86 1540.82 1058.86 1540.66C1058.86 1540.58 1069.24 1532.38 1081.93 1522.41C1094.61 1512.44 1104.99 1504.22 1104.99 1504.16C1104.99 1504.09 1093.91 1504.08 1076.26 1504.16L1047.55 1504.26L1045.52 1497.67C1044.4 1494.04 1042.15 1486.77 1040.53 1481.51C1038.9 1476.25 1035.78 1466.13 1033.59 1459.02C1031.39 1451.91 1029.56 1446.06 1029.51 1446.01C1029.46 1445.94 1028.85 1447.85 1028.14 1450.24Z" fill="#F85E00"/>
</g>
<g clip-path="url(#clip1_3_2)">
<path d="M1139.46 1144.59C1139.63 1147.08 1139.94 1151.33 1140.12 1154.06C1140.32 1156.78 1140.82 1163.82 1141.24 1169.68C1141.64 1175.55 1142.32 1185.03 1142.72 1190.71L1143.45 1201.08L1116.62 1211.36C1101.85 1217.01 1089.79 1221.67 1089.81 1221.72C1089.83 1221.78 1092.36 1222.58 1095.43 1223.51C1098.49 1224.45 1111.04 1228.26 1123.3 1231.98C1135.57 1235.71 1145.73 1238.83 1145.88 1238.89C1146.2 1239.04 1146.07 1237.49 1147.46 1257.33C1148.02 1265.17 1148.49 1271.74 1149.33 1283.63C1149.75 1289.53 1150.18 1295.59 1150.28 1297.09C1150.39 1298.6 1150.52 1299.85 1150.57 1299.87C1150.67 1299.92 1148.73 1303.12 1165.9 1274.74C1173.99 1261.37 1180.72 1250.24 1180.86 1250.02L1181.13 1249.59L1192.39 1253.03C1228.54 1264.05 1237.48 1266.75 1237.5 1266.7C1237.52 1266.67 1236.26 1265.02 1234.71 1263.01C1233.15 1261.02 1229.15 1255.87 1225.82 1251.59C1212.66 1234.62 1207.48 1227.95 1204.92 1224.65C1201.2 1219.86 1200.16 1218.51 1200.1 1218.36C1200.07 1218.29 1206.89 1206.95 1215.25 1193.15C1223.6 1179.34 1230.41 1167.99 1230.39 1167.93C1230.36 1167.87 1219.99 1171.77 1203.51 1178.07L1176.68 1188.29L1172.45 1182.84C1170.13 1179.84 1165.45 1173.84 1162.08 1169.49C1158.7 1165.13 1152.21 1156.77 1147.65 1150.89C1143.09 1145.01 1139.31 1140.18 1139.25 1140.15C1139.18 1140.11 1139.28 1142.1 1139.46 1144.59Z" fill="#F85E00"/>
</g>
<g clip-path="url(#clip2_3_2)">
<path d="M1460.32 924.95C1459.68 927.354 1458.61 931.481 1457.91 934.126C1457.23 936.771 1455.45 943.596 1453.96 949.287C1452.47 954.977 1450.07 964.167 1448.63 969.683L1446.01 979.741L1417.29 980.875C1401.49 981.499 1388.58 982.048 1388.58 982.101C1388.58 982.167 1390.72 983.735 1393.33 985.602C1395.92 987.469 1406.59 995.098 1417.01 1002.55C1427.44 1010.02 1436.07 1016.22 1436.19 1016.34C1436.45 1016.58 1436.81 1015.07 1431.78 1034.3C1429.8 1041.92 1428.14 1048.29 1425.13 1059.82C1423.63 1065.55 1422.1 1071.42 1421.72 1072.88C1421.33 1074.34 1421.05 1075.56 1421.09 1075.6C1421.18 1075.68 1418.31 1078.09 1443.67 1056.7C1455.61 1046.64 1465.56 1038.24 1465.76 1038.08L1466.15 1037.76L1475.72 1044.63C1506.43 1066.65 1514.04 1072.08 1514.07 1072.03C1514.1 1072.01 1513.43 1070.04 1512.61 1067.64C1511.77 1065.25 1509.64 1059.1 1507.85 1053.97C1500.81 1033.68 1498.05 1025.7 1496.68 1021.76C1494.69 1016.02 1494.14 1014.42 1494.13 1014.26C1494.13 1014.18 1504.22 1005.63 1516.55 995.225C1528.89 984.823 1538.98 976.255 1538.98 976.189C1538.97 976.123 1527.9 976.494 1510.27 977.177L1481.58 978.27L1479.32 971.75C1478.08 968.163 1475.57 960.978 1473.77 955.775C1471.97 950.572 1468.5 940.569 1466.06 933.54C1463.63 926.511 1461.59 920.722 1461.54 920.671C1461.49 920.607 1460.94 922.532 1460.32 924.95Z" fill="#F85E00"/>
</g>
<g clip-path="url(#clip3_3_2)">
<path d="M1757.44 1147.65C1757.61 1150.13 1757.93 1154.38 1758.11 1157.11C1758.31 1159.84 1758.82 1166.87 1759.24 1172.74C1759.65 1178.61 1760.33 1188.08 1760.74 1193.76L1761.48 1204.13L1734.65 1214.43C1719.89 1220.09 1707.83 1224.76 1707.85 1224.81C1707.88 1224.87 1710.4 1225.67 1713.47 1226.6C1716.53 1227.53 1729.09 1231.33 1741.35 1235.05C1753.62 1238.77 1763.78 1241.87 1763.94 1241.94C1764.26 1242.09 1764.12 1240.54 1765.53 1260.38C1766.1 1268.22 1766.57 1274.79 1767.42 1286.67C1767.84 1292.58 1768.28 1298.64 1768.38 1300.14C1768.49 1301.64 1768.62 1302.89 1768.67 1302.92C1768.77 1302.96 1766.83 1306.17 1783.98 1277.77C1792.06 1264.4 1798.79 1253.26 1798.92 1253.04L1799.19 1252.61L1810.45 1256.04C1846.62 1267.04 1855.56 1269.73 1855.58 1269.68C1855.59 1269.65 1854.33 1268 1852.78 1265.99C1851.22 1264 1847.22 1258.86 1843.88 1254.58C1830.71 1237.62 1825.52 1230.95 1822.97 1227.66C1819.24 1222.86 1818.2 1221.52 1818.14 1221.37C1818.11 1221.3 1824.92 1209.96 1833.27 1196.14C1841.61 1182.33 1848.41 1170.98 1848.39 1170.92C1848.37 1170.86 1838 1174.76 1821.52 1181.07L1794.69 1191.32L1790.46 1185.87C1788.14 1182.87 1783.46 1176.87 1780.08 1172.52C1776.7 1168.17 1770.21 1159.81 1765.64 1153.94C1761.08 1148.06 1757.29 1143.23 1757.23 1143.2C1757.16 1143.16 1757.26 1145.16 1757.44 1147.65Z" fill="#F85E00"/>
</g>
<path d="M1900.47 1448.07C1899.71 1450.43 1898.41 1454.5 1897.56 1457.1C1896.73 1459.7 1894.58 1466.42 1892.78 1472.02C1890.97 1477.62 1888.07 1486.66 1886.33 1492.09L1883.15 1501.98L1854.41 1501.53C1838.61 1501.27 1825.68 1501.11 1825.68 1501.16C1825.68 1501.23 1827.72 1502.91 1830.23 1504.92C1832.72 1506.93 1842.95 1515.14 1852.94 1523.16C1862.94 1531.19 1871.21 1537.86 1871.33 1537.98C1871.57 1538.23 1872.02 1536.75 1865.92 1555.68C1863.53 1563.17 1861.51 1569.44 1857.87 1580.78C1856.06 1586.42 1854.2 1592.2 1853.74 1593.63C1853.28 1595.07 1852.93 1596.28 1852.97 1596.32C1853.05 1596.4 1850.05 1598.65 1876.55 1578.7C1889.04 1569.31 1899.44 1561.48 1899.65 1561.32L1900.05 1561.03L1909.22 1568.41C1938.67 1592.11 1945.97 1597.94 1946 1597.9C1946.03 1597.88 1945.48 1595.87 1944.78 1593.43C1944.08 1591 1942.29 1584.74 1940.79 1579.52C1934.89 1558.87 1932.57 1550.75 1931.42 1546.74C1929.75 1540.9 1929.29 1539.27 1929.29 1539.11C1929.29 1539.03 1939.84 1531.05 1952.73 1521.35C1965.62 1511.65 1976.17 1503.65 1976.17 1503.58C1976.18 1503.52 1965.1 1503.27 1947.45 1502.98L1918.74 1502.48L1916.85 1495.85C1915.81 1492.2 1913.71 1484.89 1912.2 1479.59C1910.69 1474.3 1907.78 1464.12 1905.73 1456.96C1903.69 1449.81 1901.98 1443.92 1901.93 1443.86C1901.88 1443.8 1901.23 1445.69 1900.47 1448.07Z" fill="#F85E00"/>
<defs>
<clipPath id="clip0_3_2">
<rect width="156" height="156" fill="white" transform="translate(951 1443.79) rotate(-0.288982)"/>
</clipPath>
<clipPath id="clip1_3_2">
<rect width="156" height="156" fill="white" transform="translate(1065 1165.77) rotate(-20.9473)"/>
</clipPath>
<clipPath id="clip2_3_2">
<rect width="156" height="156" fill="white" transform="translate(1383 921.155) rotate(-2.26124)"/>
</clipPath>
<clipPath id="clip3_3_2">
<rect width="156" height="156" fill="white" transform="translate(1683 1168.88) rotate(-20.9902)"/>
</clipPath>
</defs>
</svg>
